<svg height="511pt" viewBox="0 1 511 511.99903" width="511pt" xmlns="http://www.w3.org/2000/svg"><path d="m316.007812 228.347656 63.683594 237.667969c3.859375 14.40625 14.832032 23.980469 24.503906 21.386719l86.765626-23.246094c9.671874-2.59375 14.386718-16.371094 10.527343-30.773438l-63.683593-237.671874zm0 0" fill="#ffb954"/><g fill="#fff"><path d="m402.375 130.539062c-11.160156 2.855469-19.820312 10.433594-24.445312 20.03125-6.398438-2.667968-13.695313-3.320312-20.910157-1.390624-8.296875 2.222656-14.972656 7.460937-19.1875 14.214843-7.925781-7.234375-19.253906-10.40625-30.386719-7.421875-17.347656 4.648438-27.648437 22.464844-23.035156 39.8125-7.542968-8.941406-20.046875-13.027344-32.058594-9.089844-14.460937 4.742188-23.0625 19.921876-19.714843 34.765626 3.738281 16.578124 20.464843 26.574218 36.722656 22.21875 4.449219-1.191407 8.378906-3.339844 11.652344-6.152344 4.015625 10.820312 15.683593 17.003906 27.054687 13.953125 10.183594-2.726563 16.875-11.988281 16.773438-22.0625 5.039062 2.8125 11.132812 3.742187 17.148437 2.132812 6.394531-1.714843 11.433594-5.96875 14.324219-11.382812 4.941406 9.164062 15.683594 14.09375 26.179688 11.28125 3.355468-.898438 6.335937-2.496094 8.832031-4.589844 4.601562-3.871094 11.664062-1.679687 13.21875 4.132813l7.203125 26.878906c2.949218 11.011718 14.265625 17.542968 25.273437 14.59375 11.007813-2.949219 17.542969-14.265625 14.59375-25.273438l-10.574219-39.464844c-1.988281-7.421874-.996093-15.359374 2.890626-21.984374 4.957031-8.449219 6.617187-18.824219 3.761718-29.03125-5.449218-19.480469-25.71875-31.191407-45.316406-26.171876zm0 0"/><path d="m356.980469 289.964844c0 10.832031-8.78125 19.613281-19.613281 19.613281-10.835938 0-19.617188-8.78125-19.617188-19.613281 0-10.832032 8.78125-19.613282 19.617188-19.613282 10.832031 0 19.613281 8.78125 19.613281 19.613282zm0 0"/><path d="m389.625 442.621094c0 10.832031-8.78125 19.617187-19.613281 19.617187s-19.613281-8.785156-19.613281-19.617187c0-10.832032 8.78125-19.613282 19.613281-19.613282s19.613281 8.78125 19.613281 19.613282zm0 0"/><path d="m427.148438 356.695312c0 10.832032-8.78125 19.613282-19.613282 19.613282-10.832031 0-19.613281-8.78125-19.613281-19.613282 0-10.832031 8.78125-19.613281 19.613281-19.613281 10.832032 0 19.613282 8.78125 19.613282 19.613281zm0 0"/></g><path d="m256.46875 244.300781-63.6875 237.671875c-3.855469 14.40625-14.3125 24.117188-23.351562 21.695313l-81.070313-21.722657c-9.035156-2.421874-13.234375-16.058593-9.375-30.460937l63.683594-237.671875zm0 0" fill="#ffb954"/><path d="m110.546875 130.539062c11.15625 2.855469 19.816406 10.433594 24.441406 20.03125 6.402344-2.667968 13.699219-3.320312 20.914063-1.390624 8.296875 2.222656 14.972656 7.460937 19.1875 14.214843 7.925781-7.234375 19.253906-10.40625 30.386718-7.421875 17.347657 4.648438 27.648438 22.464844 23.035157 39.8125 7.542969-8.941406 20.046875-13.027344 32.058593-9.089844 14.460938 4.742188 23.0625 19.921876 19.714844 34.765626-3.738281 16.578124-20.464844 26.574218-36.722656 22.21875-4.449219-1.191407-8.382812-3.339844-11.652344-6.152344-4.015625 10.820312-15.683594 17.003906-27.054687 13.953125-10.183594-2.726563-16.875-11.988281-16.773438-22.0625-5.039062 2.8125-11.132812 3.742187-17.148437 2.132812-6.398438-1.714843-11.433594-5.96875-14.324219-11.382812-4.941406 9.164062-15.683594 14.09375-26.179687 11.28125-3.355469-.898438-6.335938-2.496094-8.832032-4.589844-4.605468-3.871094-11.664062-1.679687-13.21875 4.132813l-7.203125 26.878906c-2.949219 11.011718-14.265625 17.542968-25.273437 14.59375-11.011719-2.949219-17.542969-14.265625-14.59375-25.273438l10.574218-39.464844c1.988282-7.421874.996094-15.359374-2.890624-21.984374-4.957032-8.449219-6.617188-18.824219-3.761719-29.03125 5.445312-19.480469 25.71875-31.191407 45.316406-26.171876zm0 0" fill="#fff"/><path d="m195.167969 289.964844c0 10.832031-8.78125 19.613281-19.613281 19.613281-10.832032 0-19.613282-8.78125-19.613282-19.613281 0-10.832032 8.78125-19.613282 19.613282-19.613282 10.832031 0 19.613281 8.78125 19.613281 19.613282zm0 0" fill="#fff"/><path d="m162.523438 442.621094c0 10.832031-8.78125 19.617187-19.613282 19.617187-10.835937 0-19.617187-8.785156-19.617187-19.617187 0-10.832032 8.78125-19.613282 19.617187-19.613282 10.832032 0 19.613282 8.78125 19.613282 19.613282zm0 0" fill="#fff"/><path d="m125 356.695312c0 10.832032-8.78125 19.613282-19.613281 19.613282s-19.617188-8.78125-19.617188-19.613282c0-10.832031 8.785157-19.613281 19.617188-19.613281s19.613281 8.78125 19.613281 19.613281zm0 0" fill="#fff"/><path d="m511.144531 430.792969-49.742187-185.632813c-.042969-.1875-.082032-.371094-.132813-.558594l-10.574219-39.464843c-1.304687-4.871094-.628906-10.097657 1.859376-14.335938 6.570312-11.203125 8.265624-24.265625 4.765624-36.78125-6.890624-24.632812-32.648437-39.515625-57.425781-33.167969-10.761719 2.753907-20.082031 9.132813-26.523437 17.953126-6.238282-1.195313-12.664063-.964844-18.941406.71875-7.003907 1.875-13.316407 5.460937-18.441407 10.386718-9.429687-5.074218-20.503906-6.445312-31.128906-3.597656-17.179687 4.605469-29.09375 19.175781-31.199219 35.832031-3.019531-2.082031-6.359375-3.765625-9.976562-4.949219-8.457032-2.773437-17.304688-2.613281-25.308594.128907-3.59375-14.59375-14.8125-26.859375-30.3125-31.011719-10.632812-2.847656-21.699219-1.480469-31.128906 3.597656-5.125-4.925781-11.4375-8.511718-18.441406-10.386718-6.277344-1.683594-12.703126-1.917969-18.941407-.71875-6.4375-8.820313-15.761719-15.199219-26.523437-17.953126-24.773438-6.34375-50.539063 8.535157-57.425782 33.167969-3.5 12.515625-1.808593 25.578125 4.769532 36.78125 2.484375 4.238281 3.160156 9.464844 1.855468 14.335938l-10.574218 39.464843c-.050782.1875-.085938.371094-.132813.558594l-49.742187 185.632813c-2.558594 9.546875-1.246094 19.519531 3.695312 28.074219 4.941406 8.558593 12.917969 14.683593 22.464844 17.238281l129.191406 34.617187c3.1875.851563 6.421875 1.277344 9.636719 1.277344 6.410156 0 12.734375-1.683594 18.4375-4.972656 8.558594-4.941406 14.679687-12.921875 17.238281-22.46875l54.019532-201.605469 54.019531 201.605469c2.558593 9.546875 8.679687 17.523437 17.238281 22.46875 5.699219 3.289062 12.027344 4.972656 18.4375 4.972656 3.214844 0 6.449219-.425781 9.636719-1.277344l129.191406-34.617187c9.542969-2.558594 17.523437-8.679688 22.464844-17.238281 4.941406-8.554688 6.253906-18.527344 3.695312-28.074219zm-217.074219-237.578125c-3.1875-12 3.972657-24.371094 15.960938-27.585938 7.464844-1.996094 15.335938-.074218 21.0625 5.148438 2.191406 2 5.160156 2.921875 8.101562 2.519531 2.941407-.402344 5.550782-2.09375 7.121094-4.613281 3.035156-4.867188 7.757813-8.363282 13.289063-9.84375 4.847656-1.300782 9.855469-.96875 14.484375.957031 4.898437 2.042969 10.542968-.101563 12.847656-4.886719 3.53125-7.324218 10.058594-12.675781 17.917969-14.6875 14.328125-3.667968 29.222656 4.9375 33.207031 19.183594 2.027344 7.238281 1.046875 14.796875-2.753906 21.277344-5.179688 8.824218-6.609375 19.621094-3.925782 29.628906l3.894532 14.539062c.019531.089844.03125.179688.058594.273438l6.679687 24.933594c.640625 2.660156.25 5.414062-1.121094 7.792968-1.421875 2.460938-3.714843 4.222657-6.460937 4.957032-2.742188.734375-5.609375.359375-8.070313-1.0625-2.460937-1.421875-4.222656-3.714844-4.957031-6.460938l-7.203125-26.878906c-1.617187-6.039062-6.144531-10.765625-12.101563-12.640625-5.976562-1.882813-12.410156-.59375-17.210937 3.441406-1.449219 1.21875-3.128906 2.089844-4.984375 2.589844-5.839844 1.5625-11.925781-1.058594-14.789062-6.371094-1.746094-3.238281-5.125-5.253906-8.800782-5.253906-.007812 0-.015625 0-.019531 0-3.683594.003906-7.066406 2.035156-8.800781 5.285156-1.714844 3.210938-4.589844 5.496094-8.097656 6.4375-3.277344.878907-6.71875.449219-9.6875-1.207031-3.109376-1.734375-6.914063-1.683594-9.976563.136719-3.0625 1.820312-4.925781 5.132812-4.890625 8.695312.058594 5.753907-3.792969 10.8125-9.363281 12.308594-6.328125 1.691406-12.816407-1.648437-15.09375-7.777344-.546875-1.472656-1.410157-2.726562-2.472657-3.742187.886719-2.128906 1.605469-4.34375 2.125-6.648438 1.472657-6.53125 1.183594-13.132812-.546874-19.273437 3.761718-2.222657 5.757812-6.742188 4.578124-11.171875zm-219.210937-33.808594c3.359375-12.023438 14.496094-20.027344 26.503906-20.027344 2.21875 0 4.46875.273438 6.703125.84375 7.859375 2.011719 14.386719 7.367188 17.917969 14.6875 2.304687 4.785156 7.949219 6.933594 12.847656 4.886719 4.628907-1.925781 9.636719-2.257813 14.484375-.957031 5.53125 1.480468 10.253906 4.976562 13.289063 9.847656 1.570312 2.515625 4.179687 4.207031 7.121093 4.609375 2.941407.410156 5.90625-.515625 8.101563-2.515625 5.726563-5.226562 13.601563-7.148438 21.058594-5.152344 11.992187 3.214844 19.152343 15.589844 15.964843 27.585938-1.203124 4.523437.890626 9.273437 5.042969 11.4375 4.148438 2.164062 9.242188 1.15625 12.261719-2.421875 5.222656-6.195313 13.582031-8.5625 21.300781-6.03125 9.542969 3.128906 15.285157 13.257812 13.074219 23.0625-1.195312 5.3125-4.410156 9.78125-9.054688 12.585937-4.644531 2.804688-10.085937 3.578125-15.324218 2.175782-2.875-.773438-5.472656-2.144532-7.722656-4.078126-2.484376-2.132812-5.851563-2.914062-9.019532-2.097656-3.167968.816406-5.734375 3.132813-6.875 6.199219-2.273437 6.132813-8.765625 9.472656-15.089844 7.78125-5.570312-1.496094-9.421874-6.554687-9.363281-12.308594.035157-3.5625-1.828125-6.878906-4.894531-8.699219-3.0625-1.816406-6.863281-1.867187-9.976562-.132812-2.964844 1.65625-6.40625 2.082031-9.691407 1.203125-3.503906-.9375-6.375-3.222656-8.09375-6.433594-1.734375-3.25-5.113281-5.28125-8.796875-5.289062-.007812 0-.015625 0-.019531 0-3.675781 0-7.058594 2.019531-8.800781 5.253906-2.867188 5.316406-8.945313 7.9375-14.792969 6.371094-1.855469-.496094-3.53125-1.367188-4.984375-2.585938-4.800781-4.039062-11.230469-5.328125-17.207031-3.441406-5.960938 1.875-10.488281 6.601563-12.105469 12.640625l-7.203125 26.878906c-1.515625 5.667969-7.359375 9.042969-13.027344 7.523438-5.574219-1.496094-8.921875-7.179688-7.578125-12.761719l6.679688-24.921875c.023437-.09375.035156-.183594.058594-.273438l3.894531-14.539062c2.683593-10.007812 1.25-20.804688-3.925781-29.628906-3.804688-6.484375-4.785157-14.039063-2.757813-21.277344zm108.265625 319.980469c-1.175781 4.386719-3.988281 8.054687-7.921875 10.324219-3.933594 2.269531-8.511719 2.871093-12.898437 1.695312l-129.191407-34.613281c-4.386719-1.175781-8.054687-3.988281-10.324219-7.921875-2.269531-3.933594-2.875-8.515625-1.699218-12.902344l42.449218-158.421875c2.921876 2.0625 6.214844 3.621094 9.773438 4.574219 2.640625.707031 5.316406 1.058594 7.980469 1.058594 5.308593 0 10.546875-1.394532 15.265625-4.117188 7.085937-4.09375 12.15625-10.699219 14.273437-18.601562l6.503907-24.269532c3.171874 2.246094 6.691406 3.898438 10.503906 4.917969 10.261718 2.75 20.820312.410156 28.761718-5.765625 3.457032 2.699219 7.445313 4.710938 11.746094 5.863281 4.039063 1.082031 8.171875 1.386719 12.222656.929688 3.796876 9.144531 11.667969 16.316406 21.699219 19.003906 12.347657 3.308594 24.929688-.8125 32.886719-9.851563 1.871094.828126 3.8125 1.511719 5.820312 2.050782.851563.226562 1.707032.417968 2.5625.585937zm307.003906-30.515625c-2.269531 3.933594-5.933594 6.746094-10.320312 7.921875l-129.191406 34.613281c-4.386719 1.175781-8.96875.574219-12.902344-1.695312-3.929688-2.269532-6.742188-5.9375-7.917969-10.324219l-61.265625-228.644531c1.113281-.542969 2.214844-1.132813 3.289062-1.785157.972657-.585937 1.90625-1.21875 2.816407-1.878906 7.46875 11.902344 21.890625 17.84375 36.015625 14.0625 10.03125-2.6875 17.902344-9.863281 21.699218-19.003906 4.046876.453125 8.183594.152343 12.222657-.929688 4.296875-1.152343 8.289062-3.167969 11.742187-5.863281 7.945313 6.171875 18.503906 8.511719 28.765625 5.765625 3.8125-1.023437 7.332031-2.671875 10.503907-4.921875l6.503906 24.269531c2.117187 7.90625 7.1875 14.511719 14.273437 18.601563 4.71875 2.726562 9.957031 4.117187 15.269531 4.117187 2.660157 0 5.339844-.347656 7.976563-1.054687 3.558594-.957032 6.851563-2.511719 9.773437-4.578125l42.449219 158.425781c1.171875 4.386719.570313 8.96875-1.703125 12.902344zm0 0"/><path d="m363.011719 304.769531c3.953125-6.847656 5.003906-14.828125 2.957031-22.46875s-6.945312-14.027343-13.796875-17.980469c-6.847656-3.953124-14.828125-5.007812-22.46875-2.957031-15.773437 4.226563-25.167969 20.492188-20.941406 36.265625 2.050781 7.640625 6.949219 14.023438 13.800781 17.980469 4.558594 2.632813 9.625 3.980469 14.753906 3.980469 2.574219 0 5.164063-.339844 7.714844-1.023438 7.636719-2.046875 14.027344-6.945312 17.980469-13.796875zm-23.15625-5.515625c-2.480469.660156-5.070313.324219-7.296875-.960937-2.222656-1.285157-3.816406-3.359375-4.480469-5.839844-1.371094-5.121094 1.679687-10.402344 6.800781-11.777344.828125-.222656 1.667969-.332031 2.503906-.332031 1.664063 0 3.3125.4375 4.792969 1.292969 2.226563 1.285156 3.8125 3.359375 4.480469 5.839843.664062 2.480469.324219 5.070313-.960938 7.296876-1.285156 2.222656-3.359374 3.816406-5.839843 4.480468zm0 0"/><path d="m398.613281 434.957031c-2.046875-7.640625-6.945312-14.023437-13.796875-17.980469-6.847656-3.953124-14.828125-5.003906-22.46875-2.957031s-14.027344 6.945313-17.980468 13.796875c-3.953126 6.851563-5.003907 14.832032-2.957032 22.46875 2.046875 7.640625 6.945313 14.027344 13.796875 17.980469 4.5625 2.636719 9.625 3.980469 14.757813 3.980469 2.570312 0 5.160156-.335938 7.710937-1.019532 15.769531-4.226562 25.164063-20.496093 20.9375-36.269531zm-26.113281 16.953125c-2.480469.660156-5.070312.324219-7.296875-.960937-2.222656-1.285157-3.8125-3.355469-4.480469-5.839844-.664062-2.480469-.320312-5.070313.960938-7.296875 1.285156-2.222656 3.359375-3.8125 5.839844-4.480469.828124-.21875 1.671874-.328125 2.507812-.328125 1.664062 0 3.308594.4375 4.789062 1.289063 2.226563 1.285156 3.816407 3.359375 4.480469 5.839843 1.371094 5.121094-1.679687 10.40625-6.800781 11.777344zm0 0"/><path d="m436.136719 349.03125c-2.046875-7.640625-6.945313-14.027344-13.796875-17.980469-6.851563-3.957031-14.828125-5.003906-22.46875-2.957031-7.640625 2.042969-14.027344 6.945312-17.980469 13.796875-3.957031 6.847656-5.007813 14.828125-2.957031 22.46875 2.042968 7.640625 6.945312 14.027344 13.796875 17.980469 4.5625 2.632812 9.625 3.980468 14.757812 3.980468 2.570313 0 5.160157-.339843 7.710938-1.023437 15.769531-4.226563 25.164062-20.496094 20.9375-36.265625zm-26.113281 16.953125c-2.480469.660156-5.070313.320313-7.296876-.960937-2.226562-1.285157-3.8125-3.359376-4.480468-5.839844-.664063-2.480469-.324219-5.074219.960937-7.296875 1.285157-2.226563 3.359375-3.816407 5.839844-4.480469.828125-.222656 1.667969-.332031 2.503906-.332031 1.667969 0 3.3125.4375 4.792969 1.292969 2.222656 1.285156 3.816406 3.355468 4.480469 5.839843 1.371093 5.121094-1.679688 10.402344-6.800781 11.777344zm0 0"/><path d="m382.546875 308.160156c2.628906 0 5.199219-1.066406 7.066406-2.929687 1.859375-1.859375 2.929688-4.4375 2.929688-7.066407 0-2.628906-1.066407-5.210937-2.929688-7.070312-1.867187-1.859375-4.4375-2.929688-7.066406-2.929688s-5.210937 1.070313-7.066406 2.929688c-1.871094 1.859375-2.933594 4.441406-2.933594 7.070312 0 2.628907 1.0625 5.207032 2.933594 7.066407 1.855469 1.859375 4.4375 2.929687 7.066406 2.929687zm0 0"/><path d="m441.875 389.597656c-2.640625 0-5.21875 1.058594-7.078125 2.917969-1.859375 1.871094-2.917969 4.4375-2.917969 7.078125 0 2.628906 1.058594 5.199219 2.917969 7.070312 1.871094 1.859376 4.4375 2.917969 7.078125 2.917969 2.628906 0 5.199219-1.058593 7.070312-2.917969 1.859376-1.871093 2.929688-4.441406 2.929688-7.070312 0-2.640625-1.070312-5.207031-2.929688-7.078125-1.859374-1.859375-4.441406-2.917969-7.070312-2.917969zm0 0"/><path d="m319.828125 349.894531c-2.628906 0-5.210937 1.058594-7.070313 2.929688-1.855468 1.859375-2.929687 4.429687-2.929687 7.066406 0 2.628906 1.070313 5.210937 2.929687 7.070313 1.859376 1.859374 4.441407 2.929687 7.070313 2.929687s5.207031-1.070313 7.070313-2.929687c1.855468-1.859376 2.929687-4.441407 2.929687-7.070313 0-2.640625-1.070313-5.207031-2.929687-7.066406-1.863282-1.871094-4.441407-2.929688-7.070313-2.929688zm0 0"/><path d="m426.378906 431.199219c-2.640625 0-5.210937 1.066406-7.070312 2.929687-1.859375 1.859375-2.929688 4.4375-2.929688 7.066406 0 2.628907 1.070313 5.210938 2.929688 7.070313s4.429687 2.929687 7.070312 2.929687c2.628906 0 5.210938-1.070312 7.066406-2.929687 1.859376-1.859375 2.933594-4.441406 2.933594-7.070313 0-2.628906-1.070312-5.207031-2.933594-7.066406-1.859374-1.859375-4.4375-2.929687-7.066406-2.929687zm0 0"/><path d="m183.21875 261.363281c-7.640625-2.050781-15.621094-1-22.46875 2.957031-6.851562 3.953126-11.753906 10.339844-13.800781 17.980469s-.996094 15.621094 2.960937 22.46875c3.953125 6.851563 10.339844 11.75 17.980469 13.796875 2.550781.683594 5.140625 1.023438 7.710937 1.023438 5.132813 0 10.195313-1.347656 14.757813-3.980469 6.851563-3.953125 11.75-10.339844 13.796875-17.980469 4.226562-15.773437-5.167969-32.039062-20.9375-36.265625zm1.625 31.089844c-.664062 2.480469-2.257812 4.554687-4.480469 5.839844-2.226562 1.285156-4.816406 1.621093-7.296875.960937-2.480468-.664062-4.554687-2.257812-5.839844-4.480468-1.285156-2.226563-1.625-4.816407-.960937-7.296876.664063-2.480468 2.257813-4.554687 4.480469-5.839843 1.480468-.855469 3.125-1.292969 4.792968-1.292969.835938 0 1.675782.109375 2.503907.332031 5.121093 1.375 8.171875 6.65625 6.800781 11.777344zm0 0"/><path d="m150.574219 414.019531c-7.644531-2.046875-15.621094-.996093-22.472657 2.957031-6.851562 3.957032-11.75 10.339844-13.796874 17.980469-4.226563 15.773438 5.167968 32.042969 20.9375 36.269531 2.554687.683594 5.140624 1.019532 7.714843 1.019532 5.128907 0 10.195313-1.347656 14.757813-3.980469 6.851562-3.953125 11.75-10.339844 13.796875-17.980469s.996093-15.617187-2.957031-22.46875c-3.957032-6.851562-10.34375-11.75-17.980469-13.796875zm1.621093 31.089844c-.664062 2.480469-2.253906 4.554687-4.480468 5.839844-2.222656 1.285156-4.8125 1.625-7.292969.960937-5.121094-1.371094-8.171875-6.65625-6.800781-11.777344.664062-2.480468 2.253906-4.554687 4.480468-5.839843 2.222657-1.28125 4.8125-1.621094 7.296876-.960938 2.480468.667969 4.554687 2.257813 5.835937 4.480469 1.285156 2.226562 1.628906 4.816406.960937 7.296875zm0 0"/><path d="m133.988281 364.359375c2.046875-7.640625.996094-15.621094-2.957031-22.472656-3.957031-6.847657-10.34375-11.75-17.980469-13.796875-7.644531-2.046875-15.621093-.996094-22.472656 2.960937-6.847656 3.953125-11.75 10.339844-13.796875 17.976563v.003906c-4.226562 15.769531 5.167969 32.039062 20.941406 36.265625 2.550782.683594 5.136719 1.019531 7.710938 1.019531 5.128906 0 10.195312-1.34375 14.757812-3.980468 6.851563-3.953126 11.75-10.339844 13.796875-17.976563zm-19.3125-5.175781c-.667969 2.480468-2.257812 4.554687-4.480469 5.839844-2.226562 1.28125-4.816406 1.625-7.296874.960937-5.121094-1.375-8.171876-6.65625-6.800782-11.777344.664063-2.480469 2.257813-4.554687 4.480469-5.839843 2.222656-1.285157 4.8125-1.625 7.296875-.960938 2.480469.664062 4.554688 2.253906 5.839844 4.480469 1.28125 2.222656 1.625 4.816406.960937 7.296875zm0 0"/><path d="m130.375 308.160156c2.628906 0 5.207031-1.066406 7.066406-2.929687 1.871094-1.859375 2.929688-4.4375 2.929688-7.066407 0-2.628906-1.058594-5.210937-2.929688-7.070312-1.859375-1.859375-4.4375-2.929688-7.066406-2.929688s-5.210938 1.070313-7.070312 2.929688c-1.859376 1.859375-2.929688 4.441406-2.929688 7.070312 0 2.628907 1.070312 5.207032 2.929688 7.066407 1.859374 1.859375 4.441406 2.929687 7.070312 2.929687zm0 0"/><path d="m81.042969 399.59375c0-2.640625-1.058594-5.207031-2.929688-7.078125-1.859375-1.859375-4.429687-2.917969-7.066406-2.917969-2.632813 0-5.210937 1.058594-7.070313 2.917969-1.859374 1.859375-2.917968 4.4375-2.917968 7.078125 0 2.628906 1.058594 5.199219 2.917968 7.058594 1.859376 1.871094 4.4375 2.929687 7.070313 2.929687 2.636719 0 5.207031-1.058593 7.066406-2.929687 1.871094-1.859375 2.929688-4.429688 2.929688-7.058594zm0 0"/><path d="m193.09375 349.894531c-2.640625 0-5.210938 1.070313-7.070312 2.929688-1.859376 1.859375-2.929688 4.429687-2.929688 7.066406 0 2.628906 1.070312 5.210937 2.929688 7.070313 1.859374 1.859374 4.4375 2.929687 7.070312 2.929687 2.628906 0 5.207031-1.070313 7.066406-2.929687 1.859375-1.859376 2.929688-4.441407 2.929688-7.070313 0-2.640625-1.070313-5.207031-2.929688-7.066406s-4.4375-2.929688-7.066406-2.929688zm0 0"/><path d="m86.542969 431.199219c-2.628907 0-5.210938 1.066406-7.070313 2.929687-1.859375 1.859375-2.929687 4.4375-2.929687 7.066406 0 2.628907 1.070312 5.210938 2.929687 7.070313s4.441406 2.929687 7.070313 2.929687c2.628906 0 5.207031-1.070312 7.066406-2.929687s2.929687-4.441406 2.929687-7.070313c0-2.628906-1.070312-5.207031-2.929687-7.066406s-4.4375-2.929687-7.066406-2.929687zm0 0"/><path d="m256.609375 92.632812c5.523437 0 10-4.476562 10-9.996093v-72.636719c0-5.523438-4.476563-10-10-10-5.519531 0-9.996094 4.476562-9.996094 10v72.636719c0 5.519531 4.476563 9.996093 9.996094 9.996093zm0 0"/><path d="m256.609375 128.953125c2.632813 0 5.210937-1.066406 7.070313-2.929687 1.859374-1.859376 2.929687-4.4375 2.929687-7.066407 0-2.628906-1.070313-5.210937-2.929687-7.078125-1.859376-1.859375-4.4375-2.921875-7.070313-2.921875-2.628906 0-5.207031 1.0625-7.066406 2.921875-1.859375 1.867188-2.929688 4.449219-2.929688 7.078125 0 2.628907 1.070313 5.207031 2.929688 7.066407 1.859375 1.863281 4.4375 2.929687 7.066406 2.929687zm0 0"/><path d="m197.324219 90.59375c1.953125 1.953125 4.511719 2.929688 7.070312 2.929688 2.558594 0 5.117188-.976563 7.066407-2.929688 3.90625-3.902344 3.90625-10.234375 0-14.140625l-33.554688-33.554687c-3.90625-3.902344-10.234375-3.902344-14.140625 0-3.902344 3.902343-3.902344 10.234374 0 14.140624zm0 0"/><path d="m309.449219 92.632812c2.558593 0 5.117187-.976562 7.070312-2.929687l32.625-32.644531c3.902344-3.90625 3.898438-10.234375-.003906-14.140625-3.90625-3.898438-10.234375-3.898438-14.140625.007812l-32.625 32.640625c-3.902344 3.90625-3.902344 10.238282.003906 14.140625 1.953125 1.953125 4.511719 2.925781 7.070313 2.925781zm0 0"/></svg>